HIERARCHY
ROOT hip
{
	OFFSET 0.000000 0.000000 0.000000 
	CHANNELS 6 Xposition Yposition Zposition Xrotation Zrotation Yrotation
	JOINT abdomen
	{
		OFFSET 0.000000 3.402643 0.000000 
		CHANNELS 3 Xrotation Zrotation Yrotation
		JOINT chest
		{
			OFFSET 0.000000 8.438565 -0.680529 
			CHANNELS 3 Xrotation Zrotation Yrotation
			JOINT neck
			{
				OFFSET 0.000000 10.207942 -0.272212 
				CHANNELS 3 Xrotation Zrotation Yrotation
				JOINT head
				{
					OFFSET 0.000000 3.130431 0.000000 
					CHANNELS 3 Xrotation Zrotation Yrotation
					End Site
					{
						OFFSET 0.000000 3.130435 0.000000 
					}
				}
			}
			JOINT lCollar
			{
				OFFSET 3.470700 6.669187 -0.816635 
				CHANNELS 3 Yrotation Zrotation Xrotation
				JOINT lShldr
				{
					OFFSET 3.198488 0.000000 0.000000 
					CHANNELS 3 Zrotation Yrotation Xrotation
					JOINT lForeArm
					{
						OFFSET 10.139888 0.000000 0.000000 
						CHANNELS 3 Yrotation Zrotation Xrotation
						JOINT lHand
						{
							OFFSET 8.370511 0.000000 0.000000 
							CHANNELS 3 Zrotation Yrotation Xrotation
							End Site
							{
								OFFSET 4.083176 0.000000 0.000000 
							}
						}
					}
				}
			}
			JOINT rCollar
			{
				OFFSET -3.470700 6.669187 -0.816635 
				CHANNELS 3 Yrotation Zrotation Xrotation
				JOINT rShldr
				{
					OFFSET -3.198488 0.000000 0.000000 
					CHANNELS 3 Zrotation Yrotation Xrotation
					JOINT rForeArm
					{
						OFFSET -10.139888 0.000000 0.000000 
						CHANNELS 3 Yrotation Zrotation Xrotation
						JOINT rHand
						{
							OFFSET -8.370511 0.000000 0.000000 
							CHANNELS 3 Zrotation Yrotation Xrotation
							End Site
							{
								OFFSET -4.083176 0.000000 0.000000 
							}
						}
					}
				}
			}
		}
	}
	JOINT lThigh
	{
		OFFSET 5.308129 -1.633274 1.361059 
		CHANNELS 3 Xrotation Zrotation Yrotation
		JOINT lShin
		{
			OFFSET -2.041588 -20.007561 0.000000 
			CHANNELS 3 Xrotation Zrotation Yrotation
			JOINT lFoot
			{
				OFFSET 0.000000 -19.190928 -1.224953 
				CHANNELS 3 Xrotation Yrotation Zrotation
				End Site
				{
					OFFSET 0.000000 -2.449906 4.627600 
				}
			}
		}
	}
	JOINT rThigh
	{
		OFFSET -5.308129 -1.633274 1.361059 
		CHANNELS 3 Xrotation Zrotation Yrotation
		JOINT rShin
		{
			OFFSET 2.041588 -20.007561 0.000000 
			CHANNELS 3 Xrotation Zrotation Yrotation
			JOINT rFoot
			{
				OFFSET 0.000000 -19.190928 -1.224953 
				CHANNELS 3 Xrotation Yrotation Zrotation
				End Site
				{
					OFFSET 0.000000 -2.449906 4.627600 
				}
			}
		}
	}
}
MOTION
Frames: 13
Frame Time: 0.033333
1.219488 44.468613 -0.534290 -4.776866 12.243775 91.094406 0.000000 0.000000 0.000000 11.986914 1.557105 6.414684 37.965374 10.167997 0.559882 -26.402863 -2.416372 -3.660461 -18.793531 4.158163 25.000000 -85.290062 7.917872 -4.355211 -56.254059 5.299113 82.905106 -24.564573 -11.117783 -51.796234 -7.510066 5.004817 25.000000 57.565983 -2.136946 64.915207 29.470898 -42.696083 19.724047 38.173916 -3.707471 -82.013802 27.231884 -4.216298 14.002121 14.392734 7.563584 1.568947 -3.778628 -8.388846 15.164239 14.244955 -11.052720 -2.478334 13.237017 2.947050 0.841574 32.989716 -12.316815 24.409632 
1.240463 44.449577 -0.498540 -4.668172 12.313787 91.219170 0.000000 0.000000 0.000000 11.976820 1.499843 6.402259 37.953938 10.028592 0.546305 -26.535509 -2.268587 -3.472582 -18.552856 4.188685 25.000000 -85.097542 8.123021 -4.473358 -55.987755 4.837320 82.468735 -24.804905 -11.017065 -51.775776 -7.385033 5.023408 25.000000 57.742016 -1.932258 65.005013 29.376835 -43.096569 19.899527 37.831207 -3.290716 -81.934494 27.325768 -4.166244 14.007392 14.417283 7.427677 1.535813 -3.689868 -8.433436 15.317943 12.670718 -10.348387 -2.230602 13.305232 2.517609 0.755112 33.098175 -10.741672 23.212891 
1.259075 44.425945 -0.441613 -4.697978 12.303543 91.213707 0.000000 0.000000 0.000000 11.918809 1.605274 6.422911 37.937687 9.721916 0.524643 -26.560518 -2.108106 -3.291221 -18.184025 4.154559 25.000000 -84.957375 8.217988 -4.562190 -55.538212 4.723850 82.307655 -24.867596 -11.243512 -51.645287 -7.116205 4.972043 25.000000 57.981216 -1.841305 65.143555 29.532492 -43.743870 20.385031 37.798683 -2.929682 -81.907639 27.261511 -3.923611 14.091908 14.690403 7.203084 1.469221 -3.667235 -8.325871 15.319730 10.633731 -9.139724 -1.836414 13.498642 1.802778 0.646783 33.193096 -8.473323 20.701931 
1.278044 44.401100 -0.383155 -4.668172 12.313787 91.277763 0.000000 0.000000 0.000000 11.870018 1.615119 6.433318 37.971977 9.476531 0.504990 -26.490507 -2.045953 -3.172600 -17.818310 4.187860 25.000000 -84.946762 8.198947 -4.571854 -54.948135 4.822980 82.040199 -24.829464 -11.193603 -51.687447 -6.820895 4.933073 25.000000 58.149006 -1.900523 65.257263 29.906778 -44.323227 20.716936 37.923527 -2.811304 -81.916481 27.075979 -3.708773 14.189106 15.178770 7.034182 1.403170 -3.710733 -8.294613 15.119922 8.708841 -7.869941 -1.400927 13.689049 1.024698 0.480494 33.266403 -5.617680 18.339359 
1.303196 44.384281 -0.329189 -4.571311 12.490694 91.411865 0.000000 0.000000 0.000000 11.996739 1.566601 6.416980 38.036442 9.296930 0.489797 -26.402388 -2.040156 -3.103213 -17.370350 4.164454 25.000000 -84.761375 8.169026 -4.688034 -54.486210 4.666965 82.013802 -24.614674 -10.757719 -51.967037 -6.499282 4.925880 25.000000 58.251431 -2.021856 65.334717 30.188917 -44.619389 20.489557 37.924171 -2.879661 -81.916489 27.031090 -3.550043 14.243590 15.715452 6.880026 1.319048 -3.739275 -8.393647 14.674701 7.278385 -6.683482 -1.005126 13.813687 0.321786 0.326490 33.516674 -2.258142 17.044224 
1.318645 44.356773 -0.326402 -3.902110 12.559636 92.081123 0.000000 0.000000 0.000000 12.013552 0.993386 6.285741 38.061989 9.405448 0.502880 -26.297379 -2.138942 -3.264657 -17.271738 4.163516 25.000000 -84.535751 8.111772 -4.823431 -54.225918 4.460252 82.090111 -24.630327 -10.220830 -52.227123 -6.561894 4.954887 25.000000 58.227390 -1.915708 65.314026 30.488701 -44.526108 20.105152 38.023140 -3.103357 -81.927818 26.746174 -4.081028 14.116717 16.257589 7.107416 1.329779 -3.676075 -8.825562 14.115089 5.513563 -5.991695 -0.762451 14.060358 -0.207668 0.261620 34.564232 1.833222 16.307062 
1.328044 44.324413 -0.321975 -3.121061 12.511297 92.859657 0.000000 0.000000 0.000000 11.923951 0.257983 6.118975 38.062626 9.615492 0.516288 -26.218399 -2.108906 -3.377752 -17.387819 4.155631 25.000000 -84.258446 8.174388 -4.999256 -54.152897 4.134254 82.164742 -24.456524 -9.746964 -52.523354 -6.723601 5.045753 25.000000 58.226822 -1.672002 65.271194 30.582176 -44.373226 20.133764 38.158558 -3.082585 -81.935837 26.317709 -4.716063 13.966275 16.763885 7.370283 1.356963 -3.649687 -9.161282 13.637688 3.826163 -5.486838 -0.558264 14.345807 -0.566390 0.174954 35.996712 4.496105 15.344074 
1.314471 44.274021 -0.341943 -2.047399 12.092113 93.917969 0.000000 0.000000 0.000000 11.505110 -0.822971 5.896825 38.062286 10.142455 0.553984 -26.106987 -2.328656 -3.710207 -18.094116 4.087451 25.000000 -84.010094 8.421356 -5.156170 -54.203175 3.989937 82.167206 -23.714558 -9.471452 -52.894661 -7.217253 5.198545 25.000000 58.157879 -1.422139 65.190971 30.768408 -44.284142 20.902691 38.135368 -2.662856 -81.888603 25.437105 -5.750489 13.743617 17.334839 7.830897 1.425539 -3.802366 -9.586646 13.433821 2.011097 -5.595493 -0.550883 14.793520 -0.576412 0.218209 37.167103 5.126545 13.366819 
1.283606 44.216000 -0.372661 -1.006544 11.502178 94.936127 0.000000 0.000000 0.000000 10.933447 -1.840989 5.698990 38.084362 10.597200 0.593879 -25.985626 -2.525177 -4.168405 -18.739916 3.754979 25.000000 -83.703873 8.671158 -5.353250 -54.171528 4.049757 82.135712 -23.027445 -9.353161 -53.163456 -7.683487 5.256923 25.000000 58.028870 -1.360763 65.105484 31.253529 -44.356514 22.178322 37.965858 -2.156583 -81.814232 24.297810 -6.830733 13.547190 18.013475 8.336310 1.497857 -4.096155 -9.847517 13.578994 -0.185593 -5.495183 -0.466683 15.465491 -0.605637 0.256793 38.292019 5.213480 9.660340 
1.243555 44.157234 -0.374032 -0.377885 10.878676 95.623322 0.000000 0.000000 0.000000 10.331887 -2.459514 5.586914 38.102741 10.769000 0.600458 -25.971910 -2.710716 -4.510271 -18.966999 3.507705 25.000000 -83.465042 8.731840 -5.498425 -53.987614 3.987259 82.154373 -22.452431 -9.130251 -53.452896 -7.879314 5.195043 25.000000 58.087902 -1.377108 65.143250 31.473579 -44.625832 23.206213 38.165569 -1.715278 -81.787140 23.220585 -7.527937 13.473812 18.589960 8.707316 1.543443 -4.382546 -10.029272 13.693267 -2.116186 -5.091097 -0.318068 16.054314 -0.744780 0.288636 39.078506 5.633979 6.429788 
1.200631 44.100800 -0.338937 -0.178645 10.273389 95.974510 0.000000 0.000000 0.000000 9.727201 -2.637367 5.573037 38.116005 10.604967 0.594264 -25.976482 -2.847405 -4.670088 -18.756462 3.279383 25.000000 -83.136299 8.738258 -5.702892 -53.835201 3.592543 82.638840 -21.560190 -8.671918 -53.884518 -7.751984 5.029867 25.000000 58.372025 -1.429972 65.331909 31.229868 -44.870602 23.348637 38.367344 -1.479103 -81.769539 22.214277 -7.752082 13.510033 19.065266 8.920659 1.565345 -4.485382 -10.124374 13.796928 -3.745774 -4.340960 -0.035519 16.548613 -1.008433 0.270974 39.673592 6.374819 4.079037 
1.151837 44.049236 -0.297697 -0.138705 9.707005 96.168350 0.000000 0.000000 0.000000 9.199456 -2.660695 5.584434 38.059841 10.318748 0.566298 -25.970936 -2.968357 -4.753093 -18.450184 3.178879 25.000000 -83.033188 8.616198 -5.768748 -53.582516 3.370872 83.090942 -20.400370 -8.291342 -54.336151 -7.588820 4.832907 25.000000 58.504456 -1.344720 65.405342 31.067194 -44.719334 23.278519 37.995956 -1.218762 -81.683662 21.159401 -7.800514 13.612232 19.657286 9.016951 1.554798 -4.370014 -9.932472 14.075117 -5.241926 -3.309203 0.332717 17.000099 -1.279081 0.249014 40.418804 6.581367 3.288639 
1.099220 44.000492 -0.236398 -0.405607 9.198993 96.156693 0.000000 0.000000 0.000000 8.699496 -2.461620 5.648781 37.979641 10.130909 0.563135 -25.951677 -2.977096 -4.719277 -18.194921 3.364986 25.000000 -83.303856 8.426876 -5.592760 -53.469769 3.405648 83.532547 -19.475740 -7.975888 -54.670013 -7.417203 4.659301 25.000000 58.555157 -1.166402 65.410774 31.066645 -44.553059 23.514034 37.877834 -1.053844 -81.634949 20.139614 -7.504680 13.805294 20.237909 8.936572 1.508209 -4.203660 -9.546989 14.126305 -6.480339 -2.342481 0.647055 17.545572 -1.298473 0.290568 40.950527 6.328094 3.999964 
